<svg width="520" height="128" viewBox="0 0 520 128" xmlns="http://www.w3.org/2000/svg" role="img" aria-labelledby="title desc">
  <title id="title">Kiwikoo Logo</title>
  <desc id="desc">Custom Kiwikoo logo with kiwi-themed icon and wordmark.</desc>
  <defs>
    <linearGradient id="kkAccent" x1="0" y1="0" x2="1" y2="1">
      <stop offset="0%" stop-color="#B4F056"/>
      <stop offset="100%" stop-color="#FFD93D"/>
    </linearGradient>
  </defs>

  <g transform="translate(8 8)">
    <rect x="0" y="0" width="112" height="112" rx="28" fill="#fff" stroke="#101114" stroke-width="6"/>
    <circle cx="56" cy="56" r="34" fill="url(#kkAccent)" stroke="#101114" stroke-width="5"/>
    <circle cx="56" cy="56" r="16" fill="#fff" opacity="0.94"/>
    <circle cx="56" cy="42" r="4.5" fill="#101114"/>
    <path d="M69 55 C83 50, 90 62, 79 70 C72 74, 65 70, 63 63" fill="#101114"/>
    <circle cx="43" cy="56" r="2.4" fill="#101114"/>
    <circle cx="49" cy="66" r="2.2" fill="#101114"/>
    <circle cx="63" cy="66" r="2.2" fill="#101114"/>
    <circle cx="69" cy="56" r="2.4" fill="#101114"/>
  </g>

  <g fill="#101114" font-family="Poppins, Inter, Segoe UI, Arial, sans-serif" font-weight="800" letter-spacing="-1.2">
    <text x="138" y="82" font-size="64">kiwik</text>
    <circle cx="384" cy="70" r="19" fill="url(#kkAccent)" stroke="#101114" stroke-width="4"/>
    <circle cx="432" cy="70" r="19" fill="url(#kkAccent)" stroke="#101114" stroke-width="4"/>
    <circle cx="384" cy="70" r="7.2" fill="#fff" opacity="0.95"/>
    <circle cx="432" cy="70" r="7.2" fill="#fff" opacity="0.95"/>
    <circle cx="376" cy="70" r="1.8"/>
    <circle cx="392" cy="70" r="1.8"/>
    <circle cx="424" cy="70" r="1.8"/>
    <circle cx="440" cy="70" r="1.8"/>
  </g>
</svg>
