<svg width="128" height="128" viewBox="0 0 128 128" xmlns="http://www.w3.org/2000/svg" role="img" aria-labelledby="title desc">
  <title id="title">KIWIKOO mark</title>
  <desc id="desc">Dual O symbol mark from KIWIKOO logo.</desc>
  <rect x="6" y="6" width="116" height="116" rx="26" fill="#FFFFFF" stroke="#2B2B2B" stroke-width="4"/>

  <g transform="translate(10 24) scale(0.6)">
    <circle cx="46" cy="46" r="40" fill="none" stroke="#2B2B2B" stroke-width="4"/>
    <path d="M46 9 C67 9 84 26 84 47 C84 65 71 81 53 85 C65 77 73 64 73 49 C73 31 62 15 46 9 Z" fill="#2B2B2B"/>
    <circle cx="64" cy="30" r="5" fill="#FFFFFF"/>
    <circle cx="46" cy="46" r="12" fill="none" stroke="#2B2B2B" stroke-width="4"/>
  </g>

  <g transform="translate(58 24) scale(0.6)">
    <circle cx="46" cy="46" r="40" fill="none" stroke="#2B2B2B" stroke-width="4"/>
    <path d="M46 9 C67 9 84 26 84 47 C84 65 71 81 53 85 C65 77 73 64 73 49 C73 31 62 15 46 9 Z" fill="#2B2B2B"/>
    <circle cx="64" cy="30" r="5" fill="#FFFFFF"/>
    <circle cx="46" cy="46" r="12" fill="none" stroke="#2B2B2B" stroke-width="4"/>
  </g>
</svg>
