<svg width="620" height="128" viewBox="0 0 620 128" xmlns="http://www.w3.org/2000/svg" role="img" aria-labelledby="title desc">
  <title id="title">KIWIKOO logo light</title>
  <desc id="desc">Elegant KIWIKOO wordmark for dark backgrounds.</desc>

  <g fill="#FFFFFF" font-family="Cinzel, Georgia, Times New Roman, serif" font-size="80" font-weight="600" letter-spacing="4">
    <text x="10" y="86">KIWIK</text>
  </g>

  <g transform="translate(378 18)">
    <circle cx="46" cy="46" r="40" fill="none" stroke="#FFFFFF" stroke-width="4"/>
    <path d="M46 9 C67 9 84 26 84 47 C84 65 71 81 53 85 C65 77 73 64 73 49 C73 31 62 15 46 9 Z" fill="#FFFFFF"/>
    <circle cx="64" cy="30" r="5" fill="#101114"/>
    <circle cx="46" cy="46" r="12" fill="none" stroke="#FFFFFF" stroke-width="4"/>
  </g>

  <g transform="translate(470 18)">
    <circle cx="46" cy="46" r="40" fill="none" stroke="#FFFFFF" stroke-width="4"/>
    <path d="M46 9 C67 9 84 26 84 47 C84 65 71 81 53 85 C65 77 73 64 73 49 C73 31 62 15 46 9 Z" fill="#FFFFFF"/>
    <circle cx="64" cy="30" r="5" fill="#101114"/>
    <circle cx="46" cy="46" r="12" fill="none" stroke="#FFFFFF" stroke-width="4"/>
  </g>
</svg>
